<svg id="Layer_1" data-name="Layer 1" xmlns="http://www.w3.org/2000/svg" viewBox="0 0 65.41 64.07"><defs><style>.cls-1{fill:#0b3f5d;}.cls-2{opacity:0.6;}.cls-3{fill:gray;}</style></defs><rect class="cls-1" x="-891.64" y="130.73" width="1926" height="796"/><g class="cls-2"><path class="cls-3" d="M51.7.69a1.08,1.08,0,1,0-2,.79l3.14,8.11a.35.35,0,0,0,0,.08L50.55,12,47.72,4.42a1.09,1.09,0,0,0-2,.77l3.14,8.36.06.11L43.4,19.14a26.15,26.15,0,1,0,1.53,1.54l4.88-4.88a1.07,1.07,0,0,0,.76.46l10.2,1.11h.12A1.08,1.08,0,0,0,61,15.22l-9.57-1.06,2.81-2.8a.58.58,0,0,0,.14,0l10.19,1.12h.12a1.09,1.09,0,0,0,.12-2.17L56.2,9.41l5.24-5.24A1.09,1.09,0,1,0,59.9,2.64L54.53,8Zm-2.1,37.5a23.74,23.74,0,1,1-7.74-17.52L36.74,25.8a16.52,16.52,0,1,0,1.53,1.53l5.13-5.12A23.64,23.64,0,0,1,49.6,38.19ZM25.12,39a1.05,1.05,0,0,0,.77.32,1.07,1.07,0,0,0,.77-.32L30,35.61a4.86,4.86,0,1,1-1.54-1.54l-3.34,3.35A1.09,1.09,0,0,0,25.12,39ZM30,32.51a7.11,7.11,0,1,0,1.53,1.54l5.18-5.18a14.44,14.44,0,1,1-1.54-1.53Z"/></g></svg>