<svg id="Layer_1" data-name="Layer 1" xmlns="http://www.w3.org/2000/svg" xmlns:xlink="http://www.w3.org/1999/xlink" viewBox="0 0 32.83 32.32"><defs><style>.cls-1{fill:#0b3f5d;}.cls-2{clip-path:url(#clip-path);}.cls-3{fill:gray;}</style><clipPath id="clip-path"><rect class="cls-1" x="-1178.08" y="44.28" width="1926" height="796"/></clipPath></defs><rect class="cls-1" x="-1178.08" y="44.28" width="1926" height="796"/><g class="cls-2"><image width="2764" height="1399" transform="matrix(-0.77, 0, 0, 0.77, 796.19, -209.75)" xlink:href="../tesst.jpg"/></g><path class="cls-3" d="M26.13,32.32a12.66,12.66,0,0,1-2.26-.22C15.45,30.56,2.72,20.27.42,10.92.34,10.66-1.47,4,3.11.61a3.1,3.1,0,0,1,4,.21h0l5,4.6a2.44,2.44,0,0,1,.16,3.39L11,10.16a1.53,1.53,0,0,0,0,2.1l8.65,8.8a2.13,2.13,0,0,0,2.83.21l1.22-.93a2.64,2.64,0,0,1,3.35.15l4.71,4.26a3.13,3.13,0,0,1,.82,3.49A6.46,6.46,0,0,1,26.13,32.32ZM5,1.5a1.59,1.59,0,0,0-1,.31C.26,4.57,1.85,10.48,1.87,10.54c2.18,8.88,14.27,18.62,22.27,20.09,4.51.82,6.33-1.15,7.07-3a1.62,1.62,0,0,0-.43-1.81l-4.71-4.25a1.13,1.13,0,0,0-1.44-.07l-1.23.93a3.66,3.66,0,0,1-4.8-.36L10,13.32a3,3,0,0,1-.1-4.16l1.2-1.35A.92.92,0,0,0,11,6.52L6,1.92A1.59,1.59,0,0,0,5,1.5Z"/><path class="cls-3" d="M24.64,16.11h-.06a.74.74,0,0,1-.68-.81,6.06,6.06,0,0,0-1.34-4.73c-2-2.19-5.46-2.28-5.5-2.28a.75.75,0,0,1-.73-.76.78.78,0,0,1,.76-.74c.17,0,4.15.1,6.57,2.77a7.47,7.47,0,0,1,1.73,5.87A.75.75,0,0,1,24.64,16.11Z"/><path class="cls-3" d="M29.86,15.71h0a.74.74,0,0,1-.73-.77C29.22,11,28.21,8,26.1,6c-3.35-3.14-8.38-2.72-8.43-2.71a.76.76,0,0,1-.82-.68.74.74,0,0,1,.68-.81c.23,0,5.76-.49,9.59,3.11,2.44,2.29,3.61,5.67,3.49,10.05A.75.75,0,0,1,29.86,15.71Z"/></svg>