<svg id="Layer_1" data-name="Layer 1" xmlns="http://www.w3.org/2000/svg" viewBox="0 0 47.03 60.27"><defs><style>.cls-1{fill:#0b3f5d;}.cls-2{opacity:0.6;}.cls-3{fill:gray;}</style></defs><rect class="cls-1" x="-785.56" y="152.96" width="1926" height="796"/><g class="cls-2"><path class="cls-3" d="M1.18,28.57a1.09,1.09,0,0,0-.32,2.16A52.18,52.18,0,0,0,12,32C27.81,32,36,23,41.84,13.33l3.53,2.11a1.08,1.08,0,0,0,1.18,0A1.09,1.09,0,0,0,47,14.32L44.75.91A1.07,1.07,0,0,0,44.2.14a1.08,1.08,0,0,0-1-.05l-12,5.09a1.08,1.08,0,0,0-.67,1,1.11,1.11,0,0,0,.62,1L34.8,8.94C25.16,30.19,2.17,28.64,1.18,28.57ZM37.25,8.84a1.1,1.1,0,0,0-.54-1.41L34.32,6.26l8.5-3.61,1.63,9.68L42,10.88a1.07,1.07,0,0,0-.84-.12,1.09,1.09,0,0,0-.67.5c-5.88,10-13.58,18.89-29.28,18.57C19.72,28,31.3,22.94,37.25,8.84Z"/><path class="cls-3" d="M4.71,42.58c-2.12,0-3.78,2.07-3.78,4.71v8.27c0,2.64,1.66,4.71,3.78,4.71H9.88c2.12,0,3.78-2.07,3.78-4.71V47.29c0-2.64-1.66-4.71-3.78-4.71Zm6.76,4.71v8.27c0,1.34-.75,2.51-1.59,2.51H4.71c-.84,0-1.58-1.17-1.58-2.51V47.29c0-1.34.74-2.51,1.58-2.51H9.88C10.72,44.78,11.47,46,11.47,47.29Z"/><path class="cls-3" d="M20.34,34.83c-2.12,0-3.78,2.08-3.78,4.72v16c0,2.64,1.66,4.71,3.78,4.71h5.17c2.12,0,3.78-2.07,3.78-4.71v-16c0-2.64-1.66-4.72-3.78-4.72Zm6.76,4.72v16c0,1.34-.74,2.51-1.59,2.51H20.34c-.84,0-1.58-1.17-1.58-2.51v-16c0-1.34.74-2.52,1.58-2.52h5.17C26.36,37,27.1,38.21,27.1,39.55Z"/><path class="cls-3" d="M42.68,25.54H37.51c-2.12,0-3.78,2.07-3.78,4.71V55.56c0,2.64,1.66,4.71,3.78,4.71h5.17c2.12,0,3.79-2.07,3.79-4.71V30.25C46.47,27.61,44.8,25.54,42.68,25.54Zm1.59,30c0,1.34-.74,2.51-1.59,2.51H37.51c-.84,0-1.58-1.17-1.58-2.51V30.25c0-1.34.74-2.51,1.58-2.51h5.17c.85,0,1.59,1.17,1.59,2.51Z"/></g></svg>